<svg xmlns="http://www.w3.org/2000/svg" viewBox="0 0 1000 100"><title>Thin Stripes</title><rect width="81.46" height="100" fill="#fbfbfb"/><rect x="81.46" width="4.18" height="100" fill="#e0e0e0"/><rect x="85.63" width="79.33" height="100" fill="#fbfbfb"/><rect x="164.96" width="4.18" height="100" fill="#e0e0e0"/><rect x="169.14" width="79.33" height="100" fill="#fbfbfb"/><rect x="248.47" width="4.18" height="100" fill="#e0e0e0"/><rect x="252.64" width="79.33" height="100" fill="#fbfbfb"/><rect x="331.97" width="4.18" height="100" fill="#e0e0e0"/><rect x="336.14" width="79.33" height="100" fill="#fbfbfb"/><rect x="415.47" width="4.18" height="100" fill="#e0e0e0"/><rect x="419.65" width="79.33" height="100" fill="#fbfbfb"/><rect x="498.98" width="4.18" height="100" fill="#e0e0e0"/><rect x="503.15" width="79.33" height="100" fill="#fbfbfb"/><rect x="582.48" width="4.18" height="100" fill="#e0e0e0"/><rect x="586.66" width="79.33" height="100" fill="#fbfbfb"/><rect x="665.98" width="4.18" height="100" fill="#e0e0e0"/><rect x="670.16" width="79.33" height="100" fill="#fbfbfb"/><rect x="749.49" width="4.18" height="100" fill="#e0e0e0"/><rect x="753.66" width="79.33" height="100" fill="#fbfbfb"/><rect x="832.99" width="4.18" height="100" fill="#e0e0e0"/><rect x="837.17" width="79.33" height="100" fill="#fbfbfb"/><rect x="916.5" width="4.18" height="100" fill="#e0e0e0"/><rect x="920.67" width="79.33" height="100" fill="#fbfbfb"/></svg>